<?xml version="1.0" standalone="no"?>
<!DOCTYPE svg PUBLIC "-//W3C//DTD SVG 20010904//EN"
 "http://www.w3.org/TR/2001/REC-SVG-20010904/DTD/svg10.dtd">
<svg version="1.0" xmlns="http://www.w3.org/2000/svg"
 width="128.000000pt" height="128.000000pt" viewBox="0 0 128.000000 128.000000"
 preserveAspectRatio="xMidYMid meet">
<metadata>
Created by potrace 1.11, written by Peter Selinger 2001-2013
</metadata>
<g transform="translate(0.000000,128.000000) scale(0.100000,-0.100000)"
fill="#000000" stroke="none">
<path d="M233 1024 c-13 -13 -23 -35 -23 -50 0 -15 -3 -25 -6 -21 -10 10 -62
-21 -75 -45 -8 -14 -11 -106 -11 -287 0 -259 4 -311 24 -311 5 0 7 -4 3 -9 -3
-5 5 -11 17 -13 12 -2 23 -9 26 -17 3 -9 0 -11 -8 -6 -9 6 -11 4 -5 -5 6 -10
12 -7 25 10 11 15 19 19 24 11 4 -6 2 -11 -5 -11 -7 0 -10 -3 -7 -6 3 -3 16 1
28 8 18 11 23 10 37 -7 15 -19 15 -19 8 5 l-8 25 23 -20 c13 -11 20 -14 16 -8
-10 18 2 16 20 -2 9 -8 20 -15 27 -15 6 0 2 7 -9 15 -23 17 -3 20 28 4 16 -9
19 -8 13 2 -6 9 -3 11 8 6 10 -4 17 -1 18 6 0 7 4 3 9 -8 8 -18 9 -18 9 -2 1
14 5 16 19 9 9 -5 23 -7 31 -4 8 2 21 -4 29 -14 13 -18 14 -17 7 6 -6 20 -5
23 6 14 15 -11 74 -11 102 1 10 4 17 3 17 -4 0 -6 -6 -11 -14 -11 -8 0 -17 -4
-21 -9 -3 -6 4 -9 15 -8 10 1 22 7 24 13 3 8 23 12 58 10 29 -1 63 1 76 6 25
9 26 6 11 -25 l-10 -22 18 21 c15 18 30 21 100 22 67 1 85 -2 93 -16 9 -14 10
-12 4 8 l-7 25 23 -20 c13 -11 20 -14 16 -7 -4 6 -2 12 3 12 6 0 11 -6 11 -12
0 -10 3 -9 9 1 6 8 16 11 31 6 16 -5 20 -4 15 5 -5 8 0 11 16 8 16 -2 24 2 24
12 1 8 6 14 12 13 8 -2 12 80 13 291 l1 293 -27 26 c-15 15 -34 28 -43 28 -9
1 -169 2 -355 3 l-340 2 -14 34 c-18 44 -35 54 -92 56 -34 0 -50 -5 -67 -22z
m204 -221 c6 -39 4 -194 -3 -204 -3 -5 -2 -9 3 -9 15 0 3 -138 -12 -144 -17
-6 -25 5 -25 36 0 87 -2 133 -5 136 -2 2 0 15 5 28 5 13 6 25 2 28 -12 7 -3
109 12 125 7 9 11 23 8 31 -2 8 -1 12 3 8 4 -4 10 -20 12 -35z m465 18 c-3
-12 0 -12 12 -2 16 13 56 0 56 -19 0 -6 7 -10 15 -10 9 0 12 -6 9 -15 -5 -11
-2 -13 12 -8 12 4 15 3 10 -5 -4 -7 -3 -12 2 -12 10 0 23 -44 27 -90 6 -67
-50 -147 -119 -170 -103 -34 -228 40 -236 140 -4 48 0 81 9 76 5 -4 7 3 4 13
-6 25 63 101 95 104 12 1 22 4 22 8 0 3 19 6 43 5 30 -1 41 -5 39 -15z m-487
0 c3 -5 1 -12 -5 -16 -5 -3 -10 1 -10 9 0 18 6 21 15 7z"/>
<path d="M853 815 c0 -8 4 -12 9 -9 5 3 6 10 3 15 -9 13 -12 11 -12 -6z"/>
<path d="M831 804 c0 -11 3 -14 6 -6 3 7 2 16 -1 19 -3 4 -6 -2 -5 -13z"/>
<path d="M924 809 c1 -7 10 -13 19 -15 9 -1 15 2 11 7 -3 5 -9 7 -14 4 -4 -3
-11 0 -13 5 -3 6 -4 5 -3 -1z"/>
<path d="M770 806 c0 -2 7 -7 16 -10 8 -3 12 -2 9 4 -6 10 -25 14 -25 6z"/>
<path d="M746 782 c-3 -5 1 -9 9 -9 8 0 15 4 15 9 0 4 -4 8 -9 8 -6 0 -12 -4
-15 -8z"/>
<path d="M844 762 c-12 -2 -34 -16 -50 -33 -22 -24 -28 -38 -27 -72 3 -76 5
-87 15 -87 5 0 6 5 3 10 -3 6 -1 10 4 10 6 0 11 -4 11 -9 0 -5 9 -12 19 -16
12 -3 18 -12 15 -20 -6 -15 20 -15 33 0 4 4 2 5 -4 1 -7 -4 -13 -2 -13 3 0 11
35 10 46 -2 4 -4 12 -7 18 -7 6 0 5 4 -3 9 -11 7 -10 11 6 20 11 5 22 8 25 6
9 -9 30 87 24 111 -13 50 -68 84 -122 76z"/>
<path d="M869 523 c-13 -16 -12 -17 4 -4 9 7 17 15 17 17 0 8 -8 3 -21 -13z"/>
<path d="M240 266 c0 -2 7 -7 16 -10 8 -3 12 -2 9 4 -6 10 -25 14 -25 6z"/>
<path d="M480 266 c0 -2 7 -7 16 -10 8 -3 12 -2 9 4 -6 10 -25 14 -25 6z"/>
<path d="M553 255 c0 -8 4 -12 9 -9 4 3 8 9 8 15 0 5 -4 9 -8 9 -5 0 -9 -7 -9
-15z"/>
<path d="M670 260 c0 -5 5 -10 10 -10 6 0 10 5 10 10 0 6 -4 10 -10 10 -5 0
-10 -4 -10 -10z"/>
<path d="M830 260 c0 -5 5 -10 10 -10 6 0 10 5 10 10 0 6 -4 10 -10 10 -5 0
-10 -4 -10 -10z"/>
<path d="M960 266 c0 -2 7 -7 16 -10 8 -3 12 -2 9 4 -6 10 -25 14 -25 6z"/>
<path d="M1070 260 c0 -5 5 -10 11 -10 5 0 7 5 4 10 -3 6 -8 10 -11 10 -2 0
-4 -4 -4 -10z"/>
</g>
</svg>
